<?xml version="1.0" encoding="UTF-8" standalone="no"?>
<!-- Created with Inkscape (http://www.inkscape.org/) -->

<svg
   width="100.30649mm"
   height="11.75472mm"
   viewBox="0 0 100.30649 11.754719"
   version="1.1"
   id="svg1"
   xml:space="preserve"
   xmlns="http://www.w3.org/2000/svg"
   xmlns:svg="http://www.w3.org/2000/svg"><defs
     id="defs1" /><g
     id="layer1"
     transform="translate(-18.654694,-5.9362359)"><path
       style="font-style:italic;font-size:10.9361px;line-height:0;font-family:Formula1;-inkscape-font-specification:'Formula1 Italic';letter-spacing:0px"
       d="m 25.599662,15.083009 -0.153105,1.09361 h -3.619849 q -0.984249,0 -1.640415,-0.262467 -0.656166,-0.262466 -1.017057,-0.732719 -0.360892,-0.481188 -0.470253,-1.137354 -0.09842,-0.667102 0.02187,-1.454501 l 0.153105,-1.027994 q 0.240594,-1.6513507 1.213907,-2.6137275 0.973313,-0.9733129 2.88713,-0.9733129 h 3.565169 l -0.153105,1.09361 h -3.72921 q -1.137355,0 -1.68416,0.546805 -0.546805,0.5358684 -0.69991,1.6404154 l -0.229658,1.640415 q -0.164042,1.082673 0.229658,1.640415 0.404635,0.546805 1.54199,0.546805 z m 4.30883,1.235779 q -1.640415,0 -2.252837,-0.656166 -0.612422,-0.667102 -0.426508,-2.034115 l 0.787399,-5.6539634 h 1.257652 l -0.798335,5.7414524 q -0.109361,0.732719 0.218722,1.126418 0.328083,0.382764 1.159226,0.382764 h 1.968498 q 0.776463,0 1.224843,-0.371828 0.459317,-0.371827 0.568678,-1.137354 l 0.798335,-5.7414524 h 1.257651 l -0.787399,5.6539634 q -0.19685,1.399821 -1.038929,2.045051 -0.831144,0.64523 -2.515303,0.64523 z M 41.336707,7.9745436 q 1.563863,0 2.230965,0.4702523 0.667102,0.4702523 0.513996,1.5747981 l -0.05468,0.382764 q -0.07655,0.513996 -0.3937,0.940504 -0.317147,0.415572 -1.049865,0.64523 0.798335,0.273403 1.017057,0.765527 0.229658,0.481189 0.164042,0.973313 l -0.05468,0.404636 q -0.174978,1.202971 -1.038929,1.629479 -0.853016,0.415572 -2.395006,0.415572 H 36.48108 l 1.14829,-8.2020754 z m 0.273403,1.09361 h -2.876194 l -0.33902,2.4715584 h 2.854323 q 0.721782,0 1.049865,-0.25153 0.328083,-0.262467 0.404636,-0.776463 L 42.76934,9.9977221 Q 42.824017,9.5602781 42.572487,9.3196839 42.331892,9.0681536 41.61011,9.0681536 Z m -0.306211,3.5651684 h -3.062108 l -0.349955,2.449687 h 3.073044 q 0.743655,0 1.049866,-0.229659 0.317146,-0.240594 0.382763,-0.710846 l 0.07655,-0.513997 q 0.05468,-0.404635 -0.174978,-0.69991 -0.218722,-0.295275 -0.995185,-0.295275 z m 3.707347,3.543297 1.14829,-8.2020754 h 6.572596 l -0.153105,1.09361 h -5.314945 l -0.339019,2.3950054 h 5.325881 l -0.153106,1.09361 h -5.32588 l -0.349955,2.52624 h 5.314944 l -0.153105,1.09361 z m 28.193275,0 1.148291,-8.2020754 h 6.572596 l -0.153106,1.09361 h -5.314944 l -0.339019,2.3950054 h 5.32588 l -0.153105,1.09361 h -5.325881 l -0.50306,3.61985 z m 8.070854,0 1.148291,-8.2020754 h 1.257651 l -0.995185,7.1084654 h 4.877501 l -0.153106,1.09361 z m 7.447481,0 1.14829,-8.2020754 h 1.257652 l -1.148291,8.2020754 z m 11.646954,-8.2020754 -0.15311,1.09361 h -4.090098 q -1.137355,0 -1.68416,0.546805 -0.546805,0.5358684 -0.69991,1.6404154 l -0.251531,1.771648 q -0.153105,1.104546 0.229659,1.651351 0.382763,0.546805 1.487309,0.546805 h 1.202971 q 1.170163,0 1.629479,-0.25153 0.470252,-0.262467 0.568677,-0.973313 L 98.79501,12.66613 h -2.755897 l 0.142169,-1.09361 h 4.024488 l -0.31715,2.230965 q -0.109361,0.776463 -0.371827,1.268587 -0.262467,0.492125 -0.721783,0.765527 -0.44838,0.273403 -1.115482,0.371828 -0.667102,0.109361 -1.585735,0.109361 h -0.874888 q -0.95144,0 -1.59667,-0.262467 -0.634294,-0.273402 -0.995185,-0.743654 -0.360892,-0.481189 -0.470253,-1.137355 -0.09842,-0.667102 0.01094,-1.443565 l 0.164042,-1.170163 q 0.109361,-0.820207 0.404636,-1.476373 0.295274,-0.6671022 0.798335,-1.1373545 0.50306,-0.4702523 1.224843,-0.7217826 0.721783,-0.2515303 1.684159,-0.2515303 z m 0.76552,8.2020754 1.14829,-8.2020754 h 1.25765 l -0.48119,3.4448714 h 5.19465 l 0.48119,-3.4448714 h 1.25765 l -1.14829,8.2020754 h -1.25765 l 0.50306,-3.608913 h -5.19465 l -0.50306,3.608913 z m 12.13907,0 0.99519,-7.1084654 h -3.28083 l 0.1531,-1.09361 h 7.81932 l -0.15311,1.09361 h -3.28083 l -0.99518,7.1084654 z"
       id="text1"
       aria-label="CUBE       FLIGHT" /><g
       id="g4"
       transform="matrix(0.46182531,0,0,0.46182531,45.95528,-13.021051)"
       style="stroke-width:2.16532;stroke-dasharray:none"><path
         id="path1"
         style="fill:none;stroke:#000000;stroke-width:2.47139;stroke-dasharray:none"
         d="m 20.213824,40.026834 16.470774,28.528219 -32.9415494,-10e-7 z"
         transform="matrix(0.97220477,0,0,0.78959204,16.36099,11.39513)" /><path
         id="path1-7"
         style="fill:none;stroke:#000000;stroke-width:2.98722"
         transform="matrix(0.87049963,0,0,0.46465018,18.41684,33.850244)"
         d="m 20.213824,40.026834 16.470774,28.528219 -32.9415494,-10e-7 z" /><path
         style="fill:none;stroke:#000000;stroke-width:1.73226;stroke-dasharray:none;stroke-opacity:1"
         d="M 36.0134,52.581078 V 43.139586"
         id="path4" /></g></g></svg>
